<?xml version="1.0" encoding="UTF-8" standalone="no"?>
<!-- Created with Inkscape (http://www.inkscape.org/) -->

<svg
   version="1.1"
   id="svg2"
   width="725.64667"
   height="683.29468"
   viewBox="0 0 725.64667 683.29468"
   sodipodi:docname="Brilliant Clound Powered By intercloud 2024 V2 (1).ai"
   xmlns:inkscape="http://www.inkscape.org/namespaces/inkscape"
   xmlns:sodipodi="http://sodipodi.sourceforge.net/DTD/sodipodi-0.dtd"
   xmlns="http://www.w3.org/2000/svg"
   xmlns:svg="http://www.w3.org/2000/svg">
  <defs
     id="defs6">
    <clipPath
       clipPathUnits="userSpaceOnUse"
       id="clipPath16">
      <path
         d="M 0,512.471 H 544.235 V 0 H 0 Z"
         id="path14" />
    </clipPath>
  </defs>
  <sodipodi:namedview
     id="namedview4"
     pagecolor="#ffffff"
     bordercolor="#000000"
     borderopacity="0.25"
     inkscape:showpageshadow="2"
     inkscape:pageopacity="0.0"
     inkscape:pagecheckerboard="0"
     inkscape:deskcolor="#d1d1d1" />
  <g
     id="g8"
     inkscape:groupmode="layer"
     inkscape:label="Brilliant Clound Powered By intercloud 2024 V2 (1)"
     transform="matrix(1.3333333,0,0,-1.3333333,0,683.29467)">
    <g
       id="g10">
      <g
         id="g12"
         clip-path="url(#clipPath16)">
        <g
           id="g18"
           transform="translate(234.5823,159.0685)">
          <path
             d="m 0,0 c -0.012,0.279 -0.017,0.537 -0.017,0.777 0,10.897 8.906,19.766 19.849,19.766 7.457,0 14.223,-4.111 17.65,-10.727 l 0.976,-1.884 1.899,0.956 c 1.222,0.611 2.526,0.923 3.875,0.923 4.747,0 8.609,-3.835 8.626,-8.556 V 1.239 1.194 -0.832 l 2.034,-0.11 c 2.133,-0.115 4.132,-0.714 5.898,-1.676 h 3.748 c -2.591,2.21 -5.901,3.615 -9.53,3.812 v 0.024 c 0,5.927 -4.823,10.73 -10.776,10.73 -1.744,0 -3.385,-0.42 -4.843,-1.153 C 35.737,17.854 28.352,22.68 19.832,22.68 7.683,22.68 -2.167,12.872 -2.167,0.777 c 0,-0.226 0.005,-0.45 0.013,-0.672 0.284,0.06 0.576,0.094 0.877,0.094 C -0.831,0.199 -0.402,0.128 0,0"
             style="fill:#10abe2;fill-opacity:1;fill-rule:nonzero;stroke:none"
             id="path20" />
        </g>
        <g
           id="g22"
           transform="translate(233.265,152.4093)">
          <path
             d="m 0,0 c -1.541,0 -2.797,1.251 -2.797,2.788 0,1.538 1.256,2.787 2.797,2.787 1.541,0 2.794,-1.249 2.794,-2.787 C 2.794,1.251 1.541,0 0,0 m -4.228,2.788 c 0,-2.323 1.898,-4.212 4.228,-4.212 2.332,0 4.23,1.889 4.23,4.212 C 4.23,3.543 4.025,4.247 3.677,4.86 3.157,5.774 2.301,6.48 1.277,6.803 0.874,6.931 0.445,7.001 0,7.001 -0.303,7.001 -0.591,6.966 -0.879,6.908 -1.209,6.84 -1.519,6.725 -1.819,6.585 -3.241,5.906 -4.228,4.461 -4.228,2.788"
             style="fill:#10abe2;fill-opacity:1;fill-rule:nonzero;stroke:none"
             id="path24" />
        </g>
        <path
           d="m 230.437,149.251 h 5.374 v -15.496 h -5.374 z"
           style="fill:#19171c;fill-opacity:1;fill-rule:nonzero;stroke:none"
           id="path26" />
        <g
           id="g28"
           transform="translate(238.9867,133.7557)">
          <path
             d="m 0,0 v 14.778 c 0.838,0.353 2.007,0.639 3.519,0.858 1.509,0.216 3.007,0.329 4.494,0.329 2.411,0 4.365,-0.528 5.863,-1.581 1.499,-1.055 2.246,-2.656 2.246,-4.804 V 0 h -5.37 v 9.329 c 0,1.857 -0.957,2.785 -2.862,2.785 -1.049,0 -1.887,-0.146 -2.517,-0.437 L 5.373,0 Z"
             style="fill:#19171c;fill-opacity:1;fill-rule:nonzero;stroke:none"
             id="path30" />
        </g>
        <g
           id="g32"
           transform="translate(256.7447,145.4002)">
          <path
             d="M 0,0 V 3.443 L 2.641,3.851 3.208,8.578 H 8.015 V 3.851 h 4.528 V 0 H 8.015 v -5.603 c 0,-0.959 0.193,-1.634 0.582,-2.02 0.388,-0.384 0.947,-0.577 1.683,-0.577 1.026,0 1.926,0.26 2.703,0.781 l 0.628,-3.631 c -1.131,-0.665 -2.597,-1.002 -4.399,-1.002 -4.38,0 -6.571,1.981 -6.571,5.949 V 0 Z"
             style="fill:#19171c;fill-opacity:1;fill-rule:nonzero;stroke:none"
             id="path34" />
        </g>
        <g
           id="g36"
           transform="translate(277.6483,143.3352)">
          <path
             d="M 0,0 0.28,-0.409 H 5.03 C 5.03,0.74 4.834,1.559 4.446,2.049 4.059,2.539 3.438,2.786 2.577,2.786 0.859,2.786 0,1.856 0,0 m 10.781,-1.285 c 0,-0.627 -0.083,-1.251 -0.25,-1.878 H 0 c 0,-1.042 0.335,-1.805 1.007,-2.282 0.669,-0.484 1.716,-0.723 3.141,-0.723 2.244,0 4.014,0.259 5.313,0.786 l 1.037,-3.697 c -1.78,-0.648 -3.907,-0.97 -6.379,-0.97 -6.582,0 -9.87,2.744 -9.87,8.233 0,2.818 0.73,4.888 2.199,6.212 1.467,1.326 3.511,1.99 6.129,1.99 2.598,0 4.617,-0.628 6.051,-1.88 1.436,-1.252 2.153,-3.183 2.153,-5.791"
             style="fill:#19171c;fill-opacity:1;fill-rule:nonzero;stroke:none"
             id="path38" />
        </g>
        <g
           id="g40"
           transform="translate(290.9756,133.7557)">
          <path
             d="m 0,0 v 14.778 c 0.756,0.353 1.74,0.639 2.956,0.858 1.214,0.216 2.346,0.329 3.394,0.329 1.741,0 3.067,-0.136 3.991,-0.407 L 9.68,11.706 c -0.437,0.23 -1.14,0.346 -2.104,0.346 -0.963,0 -1.698,-0.116 -2.198,-0.346 V 0 Z"
             style="fill:#19171c;fill-opacity:1;fill-rule:nonzero;stroke:none"
             id="path42" />
        </g>
        <g
           id="g44"
           transform="translate(302.6059,141.5805)">
          <path
             d="m 0,0 c 0,1.398 0.244,2.629 0.738,3.694 0.493,1.066 1.176,1.915 2.043,2.553 0.871,0.635 1.849,1.11 2.94,1.424 1.089,0.312 2.285,0.47 3.583,0.47 1.656,0 3.165,-0.307 4.527,-0.908 L 13.17,3.444 C 12.228,4.008 11.158,4.289 9.964,4.289 8.623,4.289 7.55,3.941 6.743,3.24 5.935,2.541 5.533,1.46 5.533,0 c 0,-1.524 0.424,-2.639 1.273,-3.348 0.849,-0.712 1.931,-1.065 3.252,-1.065 1.237,0 2.369,0.271 3.395,0.814 l 0.63,-3.787 c -1.259,-0.606 -2.942,-0.908 -5.061,-0.908 -1.154,0 -2.247,0.157 -3.285,0.469 C 4.699,-7.511 3.742,-7.036 2.862,-6.401 1.98,-5.763 1.285,-4.894 0.772,-3.785 0.256,-2.681 0,-1.417 0,0"
             style="fill:#19171c;fill-opacity:1;fill-rule:nonzero;stroke:none"
             id="path46" />
        </g>
        <g
           id="g48"
           transform="translate(318.8904,139.1411)">
          <path
             d="M 0,0 V 16.306 H 5.375 V 0.498 c 0,-0.855 0.109,-1.454 0.33,-1.799 0.218,-0.343 0.57,-0.516 1.051,-0.516 0.439,0 0.85,0.082 1.228,0.251 L 8.611,-5.322 C 7.646,-5.552 6.452,-5.666 5.027,-5.666 1.676,-5.666 0,-3.78 0,0"
             style="fill:#19171c;fill-opacity:1;fill-rule:nonzero;stroke:none"
             id="path50" />
        </g>
        <g
           id="g52"
           transform="translate(339.9642,138.1848)">
          <path
             d="m 0,0 c 0.661,0.68 0.991,1.789 0.991,3.334 0,1.543 -0.33,2.655 -0.991,3.333 -0.663,0.679 -1.473,1.017 -2.435,1.017 -0.966,0 -1.778,-0.338 -2.437,-1.017 -0.66,-0.678 -0.99,-1.79 -0.99,-3.333 0,-1.545 0.33,-2.654 0.99,-3.334 0.659,-0.678 1.471,-1.018 2.437,-1.018 0.962,0 1.772,0.34 2.435,1.018 m -8.881,-2.864 c -1.697,1.355 -2.547,3.424 -2.547,6.198 0,2.775 0.85,4.837 2.547,6.182 1.698,1.345 3.848,2.02 6.446,2.02 2.597,0 4.739,-0.675 6.429,-2.02 C 5.677,8.171 6.523,6.109 6.523,3.334 6.523,0.56 5.677,-1.509 3.994,-2.864 2.304,-4.22 0.162,-4.899 -2.435,-4.899 c -2.598,0 -4.748,0.679 -6.446,2.035"
             style="fill:#19171c;fill-opacity:1;fill-rule:nonzero;stroke:none"
             id="path54" />
        </g>
        <g
           id="g56"
           transform="translate(364.7828,149.2513)">
          <path
             d="m 0,0 v -14.743 c -0.839,-0.374 -2.009,-0.672 -3.506,-0.893 -1.499,-0.219 -3.003,-0.329 -4.511,-0.329 -2.41,0 -4.364,0.527 -5.862,1.581 -1.499,1.055 -2.25,2.653 -2.25,4.805 V 0 h 5.376 v -9.328 c 0,-1.043 0.252,-1.765 0.757,-2.16 0.502,-0.395 1.192,-0.596 2.073,-0.596 1.133,0 1.979,0.135 2.547,0.408 l 0,11.676 z"
             style="fill:#19171c;fill-opacity:1;fill-rule:nonzero;stroke:none"
             id="path58" />
        </g>
        <g
           id="g60"
           transform="translate(372.892,141.4227)">
          <path
             d="m 0,0 c 0,-2.835 1.257,-4.255 3.773,-4.255 0.71,0 1.288,0.094 1.728,0.281 V 3.977 C 5.037,4.205 4.452,4.321 3.739,4.321 2.693,4.321 1.807,3.98 1.086,3.305 0.362,2.626 0,1.528 0,0 M 10.876,14.024 V -7.009 C 8.779,-7.762 6.474,-8.137 3.961,-8.137 c -6.331,0 -9.494,2.767 -9.494,8.295 0,2.672 0.719,4.681 2.153,6.026 1.434,1.347 3.398,2.02 5.893,2.02 1.172,0 2.168,-0.147 2.988,-0.439 v 6.259 z"
             style="fill:#19171c;fill-opacity:1;fill-rule:nonzero;stroke:none"
             id="path62" />
        </g>
        <g
           id="g64"
           transform="translate(231.7505,127.2475)">
          <path
             d="M 0,0 2.34,-5.154 4.68,0 H 5.904 V -6.316 H 4.96 v 2.46 L 5.048,-1.202 2.699,-6.316 H 1.976 l -2.345,5.101 0.094,-2.641 v -2.46 H -1.219 V 0 Z"
             style="fill:#64686b;fill-opacity:1;fill-rule:nonzero;stroke:none"
             id="path66" />
        </g>
        <g
           id="g68"
           transform="translate(248.4182,124.2935)">
          <path
             d="m 0,0 c 0,0.749 -0.17,1.324 -0.511,1.724 -0.341,0.4 -0.818,0.601 -1.43,0.601 -0.597,0 -1.066,-0.201 -1.409,-0.601 -0.342,-0.4 -0.519,-0.957 -0.529,-1.667 v -0.465 c 0,-0.725 0.174,-1.296 0.519,-1.711 0.346,-0.415 0.822,-0.622 1.428,-0.622 0.61,0 1.082,0.196 1.416,0.587 0.334,0.392 0.506,0.954 0.516,1.686 z m 0.939,-0.408 c 0,-0.618 -0.118,-1.159 -0.354,-1.62 -0.236,-0.462 -0.57,-0.814 -1.003,-1.056 -0.432,-0.243 -0.937,-0.364 -1.514,-0.364 -0.564,0 -1.063,0.122 -1.499,0.366 -0.436,0.244 -0.774,0.592 -1.015,1.046 -0.241,0.452 -0.365,0.976 -0.371,1.572 v 0.456 c 0,0.606 0.119,1.143 0.359,1.609 0.239,0.465 0.577,0.822 1.014,1.069 0.438,0.247 0.939,0.37 1.503,0.37 0.573,0 1.078,-0.121 1.516,-0.366 C 0.013,2.43 0.349,2.075 0.585,1.612 0.821,1.147 0.939,0.608 0.939,-0.008 Z"
             style="fill:#64686b;fill-opacity:1;fill-rule:nonzero;stroke:none"
             id="path70" />
        </g>
        <g
           id="g72"
           transform="translate(256.2473,124.1681)">
          <path
             d="M 0,0 H 1.45 C 1.919,0 2.292,0.107 2.568,0.321 2.845,0.535 2.984,0.822 2.984,1.182 2.984,1.573 2.852,1.873 2.588,2.081 2.324,2.29 1.943,2.396 1.445,2.398 H 0 Z M 1.681,-0.682 H 0 v -2.554 h -0.949 v 6.315 h 2.37 c 0.806,0 1.426,-0.161 1.86,-0.485 C 3.716,2.269 3.933,1.798 3.933,1.18 3.933,0.786 3.812,0.443 3.571,0.151 3.331,-0.141 2.995,-0.359 2.566,-0.503 L 4.248,-3.184 V -3.236 H 3.235 Z"
             style="fill:#64686b;fill-opacity:1;fill-rule:nonzero;stroke:none"
             id="path74" />
        </g>
        <g
           id="g76"
           transform="translate(270.0785,123.8513)">
          <path
             d="M 0,0 H -3.102 V -2.239 H 0.502 V -2.92 H -4.045 V 3.396 H 0.452 V 2.715 H -3.102 V 0.681 H 0 Z"
             style="fill:#64686b;fill-opacity:1;fill-rule:nonzero;stroke:none"
             id="path78" />
        </g>
        <g
           id="g80"
           transform="translate(288.057,126.5666)">
          <path
             d="M 0,0 H -2.3 V -5.635 H -3.24 V 0 H -5.535 V 0.681 H 0 Z"
             style="fill:#64686b;fill-opacity:1;fill-rule:nonzero;stroke:none"
             id="path82" />
        </g>
        <g
           id="g84"
           transform="translate(299.1503,120.9317)">
          <path
             d="M 0,0 H -0.948 V 2.92 H -4.557 V 0 h -0.944 v 6.316 h 0.944 V 3.601 h 3.609 V 6.316 H 0 Z"
             style="fill:#64686b;fill-opacity:1;fill-rule:nonzero;stroke:none"
             id="path86" />
        </g>
        <g
           id="g88"
           transform="translate(306.6848,123.2652)">
          <path
             d="M 0,0 H 2.433 L 1.214,2.954 Z M 2.713,-0.681 H -0.285 L -0.959,-2.333 H -1.932 L 0.801,3.982 H 1.627 L 4.365,-2.333 H 3.397 Z"
             style="fill:#64686b;fill-opacity:1;fill-rule:nonzero;stroke:none"
             id="path90" />
        </g>
        <g
           id="g92"
           transform="translate(322.0451,120.9317)">
          <path
             d="M 0,0 H -0.948 L -4.552,4.867 V 0 h -0.949 v 6.316 h 0.949 L -0.939,1.427 V 6.316 H 0 Z"
             style="fill:#64686b;fill-opacity:1;fill-rule:nonzero;stroke:none"
             id="path94" />
        </g>
        <g
           id="g96"
           transform="translate(340.5396,122.9354)">
          <path
             d="m 0,0 c -0.088,-0.668 -0.368,-1.183 -0.838,-1.546 -0.47,-0.363 -1.096,-0.544 -1.875,-0.544 -0.846,0 -1.524,0.267 -2.033,0.802 -0.51,0.535 -0.764,1.251 -0.764,2.147 v 0.608 c 0,0.587 0.118,1.102 0.356,1.548 0.237,0.445 0.574,0.787 1.01,1.026 0.436,0.239 0.941,0.357 1.514,0.357 0.761,0 1.37,-0.186 1.829,-0.561 C -0.342,3.462 -0.075,2.944 0,2.282 h -0.948 c -0.083,0.505 -0.261,0.87 -0.534,1.097 -0.274,0.225 -0.656,0.339 -1.148,0.339 -0.603,0 -1.076,-0.197 -1.418,-0.59 C -4.391,2.734 -4.562,2.174 -4.562,1.447 V 0.835 c 0,-0.686 0.163,-1.232 0.487,-1.637 0.324,-0.405 0.778,-0.607 1.362,-0.607 0.524,0 0.926,0.105 1.206,0.314 0.281,0.21 0.467,0.575 0.559,1.095 z"
             style="fill:#64686b;fill-opacity:1;fill-rule:nonzero;stroke:none"
             id="path98" />
        </g>
        <g
           id="g100"
           transform="translate(347.3069,121.6126)">
          <path
             d="m 0,0 h 3.392 v -0.681 h -4.34 V 5.635 H 0 Z"
             style="fill:#64686b;fill-opacity:1;fill-rule:nonzero;stroke:none"
             id="path102" />
        </g>
        <g
           id="g104"
           transform="translate(360.5533,124.2935)">
          <path
             d="m 0,0 c 0,0.749 -0.17,1.324 -0.511,1.724 -0.341,0.4 -0.818,0.601 -1.43,0.601 -0.597,0 -1.066,-0.201 -1.409,-0.601 -0.342,-0.4 -0.518,-0.957 -0.529,-1.667 v -0.465 c 0,-0.725 0.174,-1.296 0.519,-1.711 0.346,-0.415 0.822,-0.622 1.428,-0.622 0.61,0 1.082,0.196 1.416,0.587 0.334,0.392 0.506,0.954 0.516,1.686 z m 0.939,-0.408 c 0,-0.618 -0.118,-1.159 -0.354,-1.62 -0.236,-0.462 -0.57,-0.814 -1.003,-1.056 -0.432,-0.243 -0.937,-0.364 -1.514,-0.364 -0.564,0 -1.063,0.122 -1.499,0.366 -0.436,0.244 -0.774,0.592 -1.015,1.046 -0.241,0.452 -0.365,0.976 -0.371,1.572 v 0.456 c 0,0.606 0.119,1.143 0.359,1.609 0.239,0.465 0.577,0.822 1.014,1.069 0.438,0.247 0.939,0.37 1.503,0.37 0.573,0 1.079,-0.121 1.516,-0.366 C 0.013,2.43 0.349,2.075 0.585,1.612 0.821,1.147 0.939,0.608 0.939,-0.008 Z"
             style="fill:#64686b;fill-opacity:1;fill-rule:nonzero;stroke:none"
             id="path106" />
        </g>
        <g
           id="g108"
           transform="translate(372.4775,127.2475)">
          <path
             d="M 0,0 V -4.294 C -0.003,-4.89 -0.216,-5.378 -0.636,-5.757 -1.058,-6.135 -1.629,-6.347 -2.35,-6.394 l -0.251,-0.008 c -0.783,0 -1.407,0.186 -1.872,0.559 -0.466,0.373 -0.702,0.886 -0.708,1.54 V 0 h 0.934 v -4.277 c 0,-0.457 0.143,-0.812 0.428,-1.065 0.284,-0.253 0.691,-0.379 1.218,-0.379 0.535,0 0.944,0.125 1.227,0.377 0.283,0.252 0.426,0.606 0.426,1.063 V 0 Z"
             style="fill:#64686b;fill-opacity:1;fill-rule:nonzero;stroke:none"
             id="path110" />
        </g>
        <g
           id="g112"
           transform="translate(379.4417,126.5666)">
          <path
             d="m 0,0 v -4.954 h 0.993 c 0.727,0 1.294,0.2 1.699,0.599 0.404,0.4 0.607,0.968 0.607,1.707 v 0.368 c 0,0.718 -0.191,1.276 -0.573,1.674 C 2.344,-0.208 1.803,-0.006 1.101,0 Z M -0.944,-5.635 V 0.681 H 1.077 C 1.699,0.681 2.25,0.559 2.728,0.317 3.207,0.073 3.576,-0.272 3.837,-0.72 4.098,-1.169 4.229,-1.683 4.233,-2.265 V -2.668 C 4.233,-3.263 4.102,-3.785 3.842,-4.234 3.581,-4.682 3.209,-5.026 2.726,-5.266 2.242,-5.507 1.68,-5.629 1.037,-5.635 Z"
             style="fill:#64686b;fill-opacity:1;fill-rule:nonzero;stroke:none"
             id="path114" />
        </g>
        <g
           id="g116"
           transform="translate(308.0588,163.2867)">
          <path
             d="m 0,0 c 0,-0.554 0.076,-1.037 0.23,-1.447 0.153,-0.411 0.351,-0.723 0.594,-0.935 0.242,-0.213 0.485,-0.367 0.727,-0.461 0.243,-0.094 0.483,-0.141 0.72,-0.141 0.673,0 1.227,0.27 1.663,0.809 0.435,0.54 0.653,1.309 0.653,2.309 0,0.861 -0.211,1.563 -0.631,2.108 C 3.535,2.786 3.003,3.058 2.36,3.058 1.717,3.058 1.163,2.823 0.698,2.353 0.232,1.883 0,1.098 0,0 M 0,-6.695 H -0.906 V 3.8 L 0,3.8 V 2.702 c 0.524,0.811 1.301,1.217 2.331,1.217 1.009,0 1.796,-0.369 2.36,-1.106 0.564,-0.737 0.846,-1.635 0.846,-2.694 0,-1.168 -0.302,-2.121 -0.906,-2.858 -0.603,-0.737 -1.38,-1.106 -2.33,-1.106 -0.98,0 -1.747,0.416 -2.301,1.247 z"
             style="fill:#f27066;fill-opacity:1;fill-rule:nonzero;stroke:none"
             id="path118" />
        </g>
        <g
           id="g120"
           transform="translate(316.0597,163.2867)">
          <path
             d="m 0,0 c 0,-0.822 0.23,-1.527 0.69,-2.115 0.46,-0.589 1.067,-0.884 1.819,-0.884 0.821,0 1.457,0.29 1.907,0.869 0.45,0.579 0.676,1.289 0.676,2.13 0,0.871 -0.213,1.596 -0.639,2.175 C 4.028,2.754 3.379,3.043 2.509,3.043 1.727,3.043 1.113,2.746 0.668,2.152 0.223,1.559 0,0.841 0,0 m 6.042,0 c 0,-1.118 -0.315,-2.041 -0.943,-2.768 -0.629,-0.728 -1.492,-1.091 -2.59,-1.091 -1.059,0 -1.9,0.366 -2.524,1.098 -0.623,0.732 -0.935,1.653 -0.935,2.761 0,1.098 0.321,2.024 0.965,2.776 0.643,0.752 1.474,1.128 2.494,1.128 1.118,0 1.986,-0.369 2.605,-1.106 C 5.732,2.061 6.042,1.128 6.042,0"
             style="fill:#f27066;fill-opacity:1;fill-rule:nonzero;stroke:none"
             id="path122" />
        </g>
        <g
           id="g124"
           transform="translate(326.9107,159.5608)">
          <path
             d="m 0,0 h -1.217 l -2.301,7.526 h 0.994 l 0.743,-2.494 c 0.277,-0.93 0.512,-1.739 0.705,-2.427 0.193,-0.688 0.319,-1.141 0.378,-1.358 l 0.075,-0.341 c 0.178,0.643 0.573,2.023 1.187,4.141 L 1.277,7.526 H 2.345 L 3.088,5.047 4.305,0.876 C 4.463,1.46 4.884,2.85 5.567,5.047 l 0.772,2.479 h 0.95 L 4.913,0 H 3.696 L 2.969,2.464 1.811,6.472 C 1.643,5.849 1.272,4.513 0.698,2.464 Z"
             style="fill:#f27066;fill-opacity:1;fill-rule:nonzero;stroke:none"
             id="path126" />
        </g>
        <g
           id="g128"
           transform="translate(338.7712,166.3297)">
          <path
             d="m 0,0 c -0.633,0 -1.163,-0.223 -1.588,-0.668 -0.426,-0.445 -0.673,-1.084 -0.743,-1.915 h 4.439 v 0.342 c 0,0.682 -0.191,1.226 -0.572,1.632 C 1.155,-0.203 0.643,0 0,0 M 2.568,-6.398 C 1.974,-6.695 1.282,-6.843 0.49,-6.843 c -1.119,0 -2.026,0.349 -2.724,1.046 -0.698,0.698 -1.047,1.616 -1.047,2.754 0,1.207 0.307,2.157 0.921,2.85 0.613,0.693 1.41,1.039 2.39,1.039 0.92,0 1.652,-0.302 2.197,-0.905 0.544,-0.604 0.816,-1.455 0.816,-2.554 0,-0.336 -0.02,-0.603 -0.059,-0.801 h -5.315 c 0.07,-0.831 0.357,-1.467 0.861,-1.908 0.505,-0.44 1.173,-0.66 2.004,-0.66 0.851,0 1.529,0.168 2.034,0.504 z"
             style="fill:#f27066;fill-opacity:1;fill-rule:nonzero;stroke:none"
             id="path130" />
        </g>
        <g
           id="g132"
           transform="translate(344.7386,159.5608)">
          <path
             d="M 0,0 H -0.906 V 7.526 H 0 V 6.249 c 0.416,0.911 1.118,1.366 2.108,1.366 0.069,0 0.193,-0.01 0.371,-0.03 V 6.665 C 2.281,6.724 2.083,6.754 1.885,6.754 1.351,6.754 0.903,6.489 0.542,5.96 0.18,5.43 0,4.844 0,4.201 Z"
             style="fill:#f27066;fill-opacity:1;fill-rule:nonzero;stroke:none"
             id="path134" />
        </g>
        <g
           id="g136"
           transform="translate(351.4926,166.3297)">
          <path
             d="m 0,0 c -0.633,0 -1.163,-0.223 -1.588,-0.668 -0.426,-0.445 -0.673,-1.084 -0.743,-1.915 h 4.439 v 0.342 c 0,0.682 -0.191,1.226 -0.572,1.632 C 1.155,-0.203 0.643,0 0,0 M 2.568,-6.398 C 1.974,-6.695 1.282,-6.843 0.49,-6.843 c -1.119,0 -2.026,0.349 -2.724,1.046 -0.698,0.698 -1.047,1.616 -1.047,2.754 0,1.207 0.307,2.157 0.921,2.85 0.613,0.693 1.41,1.039 2.39,1.039 0.92,0 1.652,-0.302 2.197,-0.905 0.544,-0.604 0.816,-1.455 0.816,-2.554 0,-0.336 -0.02,-0.603 -0.059,-0.801 h -5.315 c 0.07,-0.831 0.357,-1.467 0.861,-1.908 0.505,-0.44 1.173,-0.66 2.004,-0.66 0.851,0 1.529,0.168 2.034,0.504 z"
             style="fill:#f27066;fill-opacity:1;fill-rule:nonzero;stroke:none"
             id="path138" />
        </g>
        <g
           id="g140"
           transform="translate(357.0443,163.2273)">
          <path
             d="m 0,0 c 0,-0.861 0.21,-1.564 0.631,-2.108 0.42,-0.544 0.952,-0.816 1.596,-0.816 0.643,0 1.197,0.235 1.662,0.705 0.465,0.47 0.698,1.254 0.698,2.353 0,0.554 -0.077,1.036 -0.23,1.447 C 4.203,1.991 4.005,2.303 3.763,2.516 3.52,2.729 3.278,2.882 3.036,2.976 2.793,3.07 2.553,3.117 2.316,3.117 1.643,3.117 1.089,2.848 0.653,2.308 0.218,1.769 0,0.999 0,0 M 5.492,-3.667 H 4.587 v 1.099 C 4.062,-3.38 3.286,-3.785 2.256,-3.785 c -1.009,0 -1.796,0.368 -2.36,1.106 -0.564,0.737 -0.846,1.635 -0.846,2.694 0,1.167 0.302,2.12 0.906,2.857 0.603,0.737 1.38,1.106 2.33,1.106 0.98,0 1.747,-0.415 2.301,-1.247 v 4.097 h 0.905 z"
             style="fill:#f27066;fill-opacity:1;fill-rule:nonzero;stroke:none"
             id="path142" />
        </g>
        <g
           id="g144"
           transform="translate(369.7063,163.3609)">
          <path
             d="m 0,0 c 0,-1.098 0.232,-1.883 0.698,-2.353 0.465,-0.47 1.019,-0.705 1.662,-0.705 0.643,0 1.175,0.272 1.596,0.817 0.421,0.544 0.631,1.246 0.631,2.107 0,1 -0.218,1.769 -0.653,2.309 C 3.498,2.714 2.944,2.984 2.271,2.984 2.034,2.984 1.794,2.937 1.551,2.843 1.309,2.749 1.066,2.595 0.824,2.383 0.581,2.17 0.383,1.858 0.23,1.447 0.077,1.037 0,0.554 0,0 M 0,-3.8 H -0.906 V 6.695 H 0 V 2.598 c 0.554,0.831 1.321,1.247 2.301,1.247 0.95,0 1.727,-0.369 2.33,-1.106 0.604,-0.738 0.906,-1.69 0.906,-2.858 0,-1.059 -0.282,-1.957 -0.846,-2.694 C 4.127,-3.55 3.34,-3.919 2.331,-3.919 1.301,-3.919 0.524,-3.513 0,-2.702 Z"
             style="fill:#f27066;fill-opacity:1;fill-rule:nonzero;stroke:none"
             id="path146" />
        </g>
        <g
           id="g148"
           transform="translate(380.2307,159.7537)">
          <path
             d="m 0,0 c -0.376,-1.019 -0.822,-1.722 -1.336,-2.108 -0.515,-0.386 -1.098,-0.579 -1.752,-0.579 -0.198,0 -0.386,0.025 -0.564,0.074 v 0.891 c 0.178,-0.049 0.347,-0.074 0.505,-0.074 1.059,0 1.796,0.604 2.212,1.811 l -3.073,7.318 h 1.039 L -1.945,4.81 -0.49,1.188 c 0.069,0.227 0.5,1.434 1.292,3.622 l 0.92,2.523 h 1.009 z"
             style="fill:#f27066;fill-opacity:1;fill-rule:nonzero;stroke:none"
             id="path150" />
        </g>
        <g
           id="g152"
           transform="translate(187.9128,394.3625)">
          <path
             d="m 0,0 c 3.403,0.64 6.797,0.96 10.155,0.96 2.719,0 5.414,-0.21 8.069,-0.63 5.921,-0.922 11.773,-2.997 16.928,-6.008 10.602,-6.105 18.004,-16.526 19.802,-27.878 l 0.005,-0.029 c 1.99,-11.13 -1.359,-23.594 -8.966,-33.349 -7.329,-9.54 -18.337,-16.533 -30.21,-19.189 -12.362,-2.857 -25.417,-1.226 -35.812,4.48 -5.536,3.058 -10.321,7.2 -13.84,11.978 -3.652,4.954 -6.131,10.765 -7.169,16.797 -1.002,5.985 -0.616,12.308 1.116,18.287 1.648,5.69 4.637,11.308 8.639,16.242 C -23.57,-8.936 -12.169,-2.252 0,0 m 62.018,-53.316 c 1.998,6.905 2.439,14.221 1.275,21.157 v 0.004 c -1.206,7.028 -4.087,13.787 -8.33,19.546 C 50.898,-7.082 45.397,-2.305 39.049,1.207 27.278,7.685 12.557,9.563 -1.33,6.368 -14.651,3.397 -27.024,-4.452 -35.271,-15.161 c -4.208,-5.401 -7.381,-11.674 -9.175,-18.133 -1.875,-6.658 -2.249,-13.692 -1.086,-20.325 1.107,-6.748 3.826,-13.255 7.86,-18.813 3.946,-5.484 9.178,-10.203 15.126,-13.647 5.937,-3.459 12.405,-5.746 19.223,-6.799 2.968,-0.466 5.977,-0.698 9.009,-0.698 3.786,0 7.609,0.362 11.435,1.087 13.635,2.545 26.418,10.068 35.075,20.644 4.607,5.688 7.912,11.922 9.822,18.529"
             style="fill:#f27066;fill-opacity:1;fill-rule:nonzero;stroke:none"
             id="path154" />
        </g>
        <g
           id="g156"
           transform="translate(269.968,410.2195)">
          <path
             d="m 0,0 c 1.931,0.54 3.973,0.813 6.032,0.813 1.09,0 2.185,-0.076 3.269,-0.23 6.074,-0.845 11.781,-4.415 15.274,-9.559 3.411,-4.95 4.791,-11.179 3.785,-17.093 -0.511,-2.903 -1.59,-5.701 -3.12,-8.093 -1.527,-2.386 -3.514,-4.472 -5.905,-6.197 -4.779,-3.442 -10.503,-5 -16.119,-4.376 -5.749,0.62 -11.19,3.542 -14.93,8.023 -3.855,4.584 -5.727,10.663 -5.135,16.683 0.291,3.042 1.198,6.066 2.615,8.736 1.451,2.679 3.503,5.131 5.923,7.082 C -5.896,-2.302 -3.022,-0.846 0,0 m 35.165,-26.992 c 0.816,7.518 -1.606,15.428 -6.473,21.154 C 24.023,-0.255 17.135,3.459 9.799,4.351 2.498,5.263 -5.003,3.311 -10.761,-0.99 c -5.962,-4.344 -10.096,-11.028 -11.342,-18.335 -1.293,-7.485 0.51,-15.347 4.937,-21.559 4.408,-6.322 11.629,-10.778 19.32,-11.921 1.5,-0.221 3.009,-0.331 4.503,-0.331 2.475,0 4.91,0.303 7.194,0.901 3.767,0.953 7.408,2.769 10.533,5.256 6.069,4.857 9.998,12.141 10.781,19.987"
             style="fill:#f27066;fill-opacity:1;fill-rule:nonzero;stroke:none"
             id="path158" />
        </g>
        <g
           id="g160"
           transform="translate(370.3604,421.4254)">
          <path
             d="M 0,0 C 0.621,1.244 1.061,2.56 1.293,3.879 1.647,5.702 1.488,7.761 0.835,9.832 0.467,11 -0.047,12.119 -0.678,13.143 c 0.35,0.046 0.699,0.063 1.046,0.052 C 2.133,13.14 3.88,12.299 5.05,10.937 6.249,9.561 6.824,7.617 6.589,5.733 6.321,3.855 5.256,2.13 3.727,1.111 2.637,0.371 1.328,-0.027 0,0 m -14.283,14.987 c 0.612,0 1.225,-0.063 1.823,-0.194 1.068,-0.225 2.085,-0.657 3.024,-1.284 0.96,-0.641 1.791,-1.47 2.43,-2.43 0.616,-0.959 1.029,-1.96 1.23,-2.981 0.204,-1.024 0.179,-2.072 0.126,-3.304 -0.074,-1.122 -0.408,-2.273 -0.968,-3.329 -0.483,-0.91 -1.099,-1.707 -1.885,-2.41 -1.717,-1.547 -4.021,-2.348 -6.349,-2.204 l -0.012,10e-4 c -2.44,0.131 -4.812,1.353 -6.356,3.284 -1.598,1.941 -2.324,4.582 -1.938,7.092 0.333,2.474 1.759,4.786 3.832,6.194 1.458,1.021 3.252,1.565 5.043,1.565 m -1.169,-22.663 c 0.905,-0.183 1.823,-0.273 2.741,-0.273 2.772,0 5.531,0.823 7.851,2.382 0.236,0.157 0.475,0.327 0.719,0.517 0.678,-0.163 1.345,-0.262 1.986,-0.297 3.116,-0.196 6.259,0.847 8.617,2.859 2.318,1.954 3.851,4.758 4.202,7.659 0.428,2.925 -0.314,6.032 -2.037,8.525 -1.75,2.566 -4.508,4.398 -7.554,5.023 -2.279,0.487 -4.715,0.266 -6.937,-0.622 -1.836,1.023 -3.863,1.63 -5.899,1.762 -3.59,0.254 -7.243,-0.922 -10.008,-3.239 -2.669,-2.227 -4.448,-5.483 -4.884,-8.94 -0.417,-3.428 0.502,-6.996 2.52,-9.787 2.063,-2.859 5.23,-4.889 8.683,-5.569"
             style="fill:#f27066;fill-opacity:1;fill-rule:nonzero;stroke:none"
             id="path162" />
        </g>
        <g
           id="g164"
           transform="translate(350.4206,343.6167)">
          <path
             d="m 0,0 c -7.695,2.593 -15.132,7.696 -21.491,14.738 -6.107,7.024 -10.3,14.817 -12.128,22.545 -1.006,4.153 -1.201,8.313 -0.562,12.038 0.645,3.921 2.322,7.285 4.845,9.728 2.535,2.436 5.957,3.991 9.908,4.495 1.116,0.151 2.268,0.225 3.446,0.225 2.766,0 5.671,-0.411 8.562,-1.224 7.651,-2.102 15.288,-6.573 22.068,-12.911 6.827,-6.626 11.659,-14.242 13.969,-22.011 1.327,-4.651 1.709,-8.991 1.135,-12.9 C 29.105,10.299 27.172,6.292 24.31,3.437 21.354,0.681 17.28,-1.107 12.836,-1.594 8.911,-2.029 4.587,-1.489 0,0 m 32.901,14.228 c 0.768,4.548 0.544,9.376 -0.663,14.345 -2.066,8.636 -6.72,17.285 -13.478,25.033 -7.148,7.88 -15.206,13.364 -23.964,16.305 -5.366,1.729 -10.479,2.344 -15.207,1.823 -5.68,-0.62 -10.929,-2.959 -14.807,-6.609 -3.764,-3.72 -6.29,-8.883 -7.112,-14.534 -0.692,-4.704 -0.263,-9.839 1.278,-15.28 2.617,-8.842 7.807,-17.092 15.447,-24.539 7.477,-7.013 15.953,-11.976 24.505,-14.35 3.44,-0.969 6.827,-1.455 10.111,-1.455 1.419,0 2.82,0.091 4.197,0.273 5.109,0.638 9.786,2.788 13.171,6.053 3.385,3.265 5.701,7.861 6.522,12.935"
             style="fill:#f27066;fill-opacity:1;fill-rule:nonzero;stroke:none"
             id="path166" />
        </g>
        <g
           id="g168"
           transform="translate(145.0952,291.8189)">
          <path
             d="m 0,0 h 2.628 v -28.826 c 0,-4.634 1.168,-8.328 3.506,-11.08 2.338,-2.756 5.45,-4.132 9.336,-4.132 3.652,0 6.71,1.29 9.175,3.875 2.466,2.584 3.699,5.816 3.699,9.704 0,3.926 -1.218,7.175 -3.65,9.734 -2.435,2.564 -5.51,3.845 -9.224,3.845 -2.03,0 -3.935,-0.428 -5.716,-1.281 -1.783,-0.853 -3.444,-2.156 -4.981,-3.91 v 3.558 c 1.537,1.389 3.198,2.435 4.981,3.138 1.781,0.703 3.686,1.058 5.716,1.058 2.241,0 4.322,-0.402 6.245,-1.204 1.922,-0.797 3.598,-1.967 5.028,-3.506 1.41,-1.513 2.488,-3.241 3.234,-5.17 0.748,-1.933 1.121,-3.999 1.121,-6.198 0,-4.633 -1.468,-8.465 -4.402,-11.5 -2.937,-3.031 -6.636,-4.544 -11.098,-4.544 -2.797,0 -5.36,0.66 -7.687,1.985 -2.328,1.324 -4.248,3.21 -5.766,5.666 -0.724,1.239 -1.264,2.675 -1.616,4.308 C 0.176,-32.847 0,-30.888 0,-28.603 Z"
             style="fill:#f27066;fill-opacity:1;fill-rule:nonzero;stroke:none"
             id="path170" />
        </g>
        <g
           id="g172"
           transform="translate(182.5989,245.9546)">
          <path
             d="m 0,0 v 30.969 h 2.628 v -6.052 c 1.238,2.049 2.769,3.592 4.595,4.629 1.826,1.033 3.902,1.552 6.23,1.552 0.212,0 0.458,-0.013 0.735,-0.03 0.279,-0.022 0.641,-0.065 1.091,-0.129 v -2.597 h -0.193 c -1.005,0.085 -1.676,0.128 -2.019,0.128 -3.03,0 -5.529,-1.131 -7.493,-3.395 C 3.609,22.812 2.628,19.919 2.628,16.4 V 0 Z"
             style="fill:#f27066;fill-opacity:1;fill-rule:nonzero;stroke:none"
             id="path174" />
        </g>
        <path
           d="m 201.879,276.924 h 2.692 v -30.969 h -2.692 z m -0.576,8.71 c 0,0.535 0.182,0.986 0.546,1.346 0.362,0.364 0.81,0.544 1.344,0.544 0.555,0 1.024,-0.18 1.41,-0.544 0.384,-0.36 0.577,-0.811 0.577,-1.346 0,-0.532 -0.193,-0.99 -0.577,-1.376 -0.386,-0.382 -0.855,-0.575 -1.41,-0.575 -0.512,0 -0.956,0.193 -1.329,0.575 -0.373,0.386 -0.561,0.844 -0.561,1.376"
           style="fill:#f27066;fill-opacity:1;fill-rule:nonzero;stroke:none"
           id="path176" />
        <path
           d="m 213.088,291.819 h 2.692 v -45.864 h -2.692 z"
           style="fill:#f27066;fill-opacity:1;fill-rule:nonzero;stroke:none"
           id="path178" />
        <path
           d="m 224.297,291.819 h 2.692 v -45.864 h -2.692 z"
           style="fill:#f27066;fill-opacity:1;fill-rule:nonzero;stroke:none"
           id="path180" />
        <path
           d="m 235.506,276.924 h 2.692 v -30.969 h -2.692 z m -0.577,8.71 c 0,0.535 0.182,0.986 0.547,1.346 0.362,0.364 0.81,0.544 1.344,0.544 0.555,0 1.024,-0.18 1.41,-0.544 0.383,-0.36 0.576,-0.811 0.576,-1.346 0,-0.532 -0.193,-0.99 -0.576,-1.376 -0.386,-0.382 -0.855,-0.575 -1.41,-0.575 -0.513,0 -0.956,0.193 -1.329,0.575 -0.373,0.386 -0.562,0.844 -0.562,1.376"
           style="fill:#f27066;fill-opacity:1;fill-rule:nonzero;stroke:none"
           id="path182" />
        <g
           id="g184"
           transform="translate(285.0564,273.1089)">
          <path
             d="m 0,0 c 0,1.44 -0.279,2.868 -0.836,4.282 -0.557,1.406 -1.393,2.735 -2.507,3.982 -1.117,1.312 -2.692,2.298 -4.724,2.953 -2.034,0.656 -4.494,0.982 -7.379,0.982 -0.459,0 -0.934,-0.034 -1.425,-0.099 -0.493,-0.064 -1.035,-0.162 -1.625,-0.295 -0.589,-0.065 -1.181,-0.193 -1.77,-0.39 -0.592,-0.198 -1.181,-0.463 -1.772,-0.789 -1.048,-0.459 -2.066,-1.097 -3.05,-1.92 -0.984,-0.819 -1.935,-1.788 -2.853,-2.902 -0.853,-1.05 -1.541,-2.345 -2.066,-3.884 -0.525,-1.543 -0.853,-3.296 -0.984,-5.263 0,-2.628 0.36,-4.904 1.083,-6.841 0.72,-1.934 1.802,-3.558 3.247,-4.87 1.506,-1.247 3.064,-2.246 4.672,-3 1.607,-0.755 3.296,-1.23 5.068,-1.428 h 0.245 0.246 c 0.131,-0.064 0.247,-0.098 0.345,-0.098 h 0.247 0.293 0.296 0.247 0.244 c 0.789,0 1.526,0.051 2.214,0.15 0.69,0.098 1.361,0.278 2.017,0.54 0.328,0.133 0.64,0.261 0.936,0.394 0.294,0.129 0.605,0.262 0.935,0.395 0.261,0.197 0.555,0.394 0.885,0.587 0.328,0.197 0.621,0.428 0.885,0.69 0.328,0.197 0.639,0.441 0.934,0.737 0.296,0.296 0.607,0.575 0.935,0.836 0.328,0.33 0.656,0.643 0.984,0.934 0.327,0.296 0.655,0.609 0.983,0.935 v -10.72 c -0.064,-0.133 -0.131,-0.232 -0.195,-0.296 v -0.099 c -0.788,-0.527 -1.609,-1.003 -2.46,-1.427 -0.853,-0.429 -1.738,-0.806 -2.658,-1.132 -0.919,-0.261 -2.034,-0.475 -3.343,-0.638 -1.314,-0.163 -2.823,-0.249 -4.527,-0.249 h -0.147 -0.148 -0.296 -0.195 -0.197 -0.148 -0.148 c -3.018,0 -5.821,0.544 -8.412,1.625 -2.591,1.084 -4.968,2.739 -7.133,4.968 -2.164,2.297 -3.787,4.933 -4.869,7.921 -1.082,2.983 -1.624,6.344 -1.624,10.086 0,3.279 0.525,6.326 1.575,9.147 1.048,2.82 2.621,5.413 4.721,7.775 2.098,2.358 4.69,4.132 7.774,5.311 3.082,1.183 6.656,1.77 10.722,1.77 3.871,0 7.315,-0.523 10.332,-1.573 3.016,-1.05 5.54,-2.623 7.574,-4.723 C 5.249,12.263 6.805,10.052 7.823,7.724 8.839,5.397 9.349,2.983 9.349,0.493 V -27.154 H 0 Z"
             style="fill:#f27066;fill-opacity:1;fill-rule:nonzero;stroke:none"
             id="path186" />
        </g>
        <g
           id="g188"
           transform="translate(302.8642,274.5834)">
          <path
             d="m 0,0 c 0,2.623 0.459,5.101 1.378,7.428 0.917,2.328 2.293,4.51 4.132,6.546 1.901,1.967 4.132,3.459 6.689,4.475 2.559,1.015 5.476,1.526 8.757,1.526 0.523,0 1.097,-0.035 1.721,-0.099 0.624,-0.069 1.295,-0.163 2.017,-0.296 0.722,-0.133 1.459,-0.296 2.214,-0.493 0.754,-0.197 1.526,-0.458 2.312,-0.784 1.378,-0.592 2.69,-1.346 3.935,-2.263 1.245,-0.922 2.461,-2.036 3.641,-3.348 1.181,-1.247 2.066,-2.786 2.656,-4.621 0.591,-1.839 0.885,-3.939 0.885,-6.296 V 1.526 1.183 0.934 0.592 -28.629 h -9.346 v 27.845 c 0,1.44 -0.213,2.867 -0.639,4.277 -0.427,1.411 -1.067,2.739 -1.918,3.987 -0.853,1.311 -1.968,2.293 -3.346,2.949 -1.378,0.656 -3.017,0.986 -4.918,0.986 -1.773,0 -3.331,-0.296 -4.675,-0.888 C 14.149,9.94 12.986,9.053 12.002,7.874 11.018,6.691 10.247,5.427 9.691,4.085 9.132,2.739 8.757,1.312 8.56,-0.197 V -28.629 H 0 Z"
             style="fill:#f27066;fill-opacity:1;fill-rule:nonzero;stroke:none"
             id="path190" />
        </g>
        <g
           id="g192"
           transform="translate(353.2378,304.7895)">
          <path
             d="m 0,0 h 9.248 v -11.608 h 17.906 v -8.461 H 9.248 v -24.008 c 0,-0.917 0.064,-1.74 0.197,-2.46 0.131,-0.72 0.328,-1.41 0.592,-2.066 0.259,-0.656 0.835,-1.132 1.721,-1.428 0.885,-0.295 2.115,-0.441 3.688,-0.441 l 10.922,0.197 v -8.56 h -11.61 -0.197 -0.197 -0.146 c -0.034,0 -0.084,-0.034 -0.148,-0.098 H 13.873 13.676 13.528 13.38 c -2.229,0 -4.164,0.325 -5.804,0.985 -1.639,0.652 -2.985,1.672 -4.033,3.048 -1.05,1.376 -1.854,2.855 -2.411,4.428 -0.558,1.573 -0.903,3.215 -1.033,4.921 C 0.032,-45.423 0,-45.273 0,-45.11 v 0.54 0.442 0.544 0.197 z"
             style="fill:#f27066;fill-opacity:1;fill-rule:nonzero;stroke:none"
             id="path194" />
        </g>
        <g
           id="g196"
           transform="translate(249.0273,229.3909)">
          <path
             d="m 0,0 h -3.293 c -5.028,0 -9.11,-1.385 -12.246,-4.155 -3.136,-2.769 -4.705,-6.364 -4.705,-10.781 0,-4.393 1.575,-7.974 4.723,-10.745 3.149,-2.769 7.224,-4.153 12.228,-4.153 H 0 v -2.783 h -2.672 c -6.393,0 -11.458,1.598 -15.191,4.795 -3.734,3.198 -5.601,7.492 -5.601,12.886 0,2.953 0.67,5.687 2.013,8.201 1.343,2.512 3.244,4.611 5.711,6.296 1.659,1.123 3.489,1.94 5.49,2.453 2.002,0.512 4.528,0.769 7.578,0.769 l 2.672,0 z"
             style="fill:#f27066;fill-opacity:1;fill-rule:nonzero;stroke:none"
             id="path198" />
        </g>
        <path
           d="m 255.544,236.746 h 3.075 v -39.972 h -3.075 z"
           style="fill:#f27066;fill-opacity:1;fill-rule:nonzero;stroke:none"
           id="path200" />
        <g
           id="g202"
           transform="translate(269.1249,214.5291)">
          <path
             d="m 0,0 c 0,-4.346 1.421,-8.017 4.266,-11.02 2.842,-3.002 6.314,-4.502 10.415,-4.502 4.074,0 7.528,1.506 10.359,4.521 2.83,3.014 4.246,6.681 4.246,11.001 0,4.367 -1.416,8.047 -4.246,11.036 -2.831,2.99 -6.285,4.485 -10.359,4.485 C 10.58,15.521 7.108,14.02 4.266,11.019 1.421,8.016 0,4.343 0,0 m -3.22,-0.074 c 0,2.465 0.451,4.802 1.353,7.011 0.903,2.208 2.221,4.228 3.954,6.058 1.685,1.707 3.605,3.02 5.767,3.935 2.158,0.916 4.433,1.374 6.827,1.374 2.391,0 4.667,-0.458 6.827,-1.374 2.159,-0.915 4.082,-2.228 5.765,-3.935 1.708,-1.757 3.007,-3.747 3.899,-5.967 0.891,-2.222 1.336,-4.588 1.336,-7.102 0,-2.49 -0.445,-4.844 -1.336,-7.065 -0.892,-2.221 -2.191,-4.211 -3.899,-5.967 -1.683,-1.733 -3.606,-3.051 -5.765,-3.954 -2.16,-0.902 -4.436,-1.355 -6.827,-1.355 -2.394,0 -4.669,0.453 -6.827,1.355 -2.162,0.903 -4.082,2.221 -5.767,3.954 -1.733,1.805 -3.051,3.819 -3.954,6.04 -0.902,2.221 -1.353,4.551 -1.353,6.992"
             style="fill:#f27066;fill-opacity:1;fill-rule:nonzero;stroke:none"
             id="path204" />
        </g>
        <g
           id="g206"
           transform="translate(334.1769,232.1737)">
          <path
             d="m 0,0 h 3.076 v -20.025 c 0,-4.93 -1.306,-8.834 -3.918,-11.714 -2.612,-2.88 -6.101,-4.32 -10.47,-4.32 -4.368,0 -7.858,1.44 -10.47,4.32 -2.611,2.88 -3.916,6.784 -3.916,11.714 V 0 h 3.001 v -21.014 c 0,-3.636 1.055,-6.594 3.167,-8.876 2.111,-2.283 4.851,-3.423 8.218,-3.423 3.343,0 6.064,1.135 8.163,3.404 2.099,2.27 3.149,5.235 3.149,8.895 z"
             style="fill:#f27066;fill-opacity:1;fill-rule:nonzero;stroke:none"
             id="path208" />
        </g>
        <g
           id="g210"
           transform="translate(376.5323,236.7462)">
          <path
             d="m 0,0 h 3.074 v -20.241 c 0,-2.612 -0.194,-4.851 -0.586,-6.718 -0.389,-1.866 -1.012,-3.508 -1.867,-4.923 -1.731,-2.807 -3.928,-4.967 -6.589,-6.48 -2.66,-1.513 -5.588,-2.27 -8.786,-2.27 -5.125,0 -9.365,1.733 -12.719,5.198 -3.357,3.467 -5.035,7.847 -5.035,13.143 0,2.489 0.427,4.838 1.282,7.047 0.854,2.208 2.098,4.191 3.734,5.949 1.659,1.757 3.581,3.093 5.765,4.008 2.183,0.916 4.558,1.374 7.12,1.374 2.27,0 4.43,-0.404 6.48,-1.209 2.051,-0.805 3.966,-2.001 5.747,-3.588 v -4.063 c -1.756,2 -3.647,3.49 -5.674,4.467 -2.026,0.975 -4.209,1.464 -6.553,1.464 -4.245,0 -7.755,-1.464 -10.524,-4.393 -2.77,-2.928 -4.155,-6.639 -4.155,-11.129 0,-4.442 1.402,-8.139 4.209,-11.092 2.807,-2.953 6.298,-4.429 10.47,-4.429 4.442,0 7.987,1.567 10.636,4.703 2.647,3.135 3.971,7.364 3.971,12.684 z"
             style="fill:#f27066;fill-opacity:1;fill-rule:nonzero;stroke:none"
             id="path212" />
        </g>
      </g>
    </g>
  </g>
</svg>
